<svg fill="none" height="52" viewBox="0 0 79 52" width="79" xmlns="http://www.w3.org/2000/svg"><path clip-rule="evenodd" d="m24.5679 17.0769v.0002c.0541 2.0172.1104 4.1195-1.0257 5.7101l-4.4604 6.2446c-.7171 1.0039-2.0299 1.3319-3.2636 1.3319-3.2133 0-5.8182 2.6049-5.8182 5.8181 0 3.2133 2.6049 5.8182 5.8182 5.8182s5.8182-2.6049 5.8182-5.8182c0-.4121-.0113-.8337-.0227-1.2591-.0541-2.0172-.1105-4.1195 1.0257-5.7101l4.4601-6.2443c.7172-1.004 2.0301-1.332 3.2639-1.332 3.2132 0 5.8181-2.6048 5.8181-5.8181s-2.6049-5.8182-5.8181-5.8182c-3.2133 0-5.8182 2.6049-5.8182 5.8182 0 .412.0113.8335.0227 1.2587zm31.9771 19.1049c0 3.2133 2.6049 5.8182 5.8182 5.8182s5.8182-2.6049 5.8182-5.8182c0-3.2132-2.6049-5.8181-5.8182-5.8181s-5.8182 2.6049-5.8182 5.8181zm-2.9091-14.5455c-1.2338 0-2.5466.328-3.2637 1.332l-4.4606 6.2447c-1.1361 1.5906-1.0797 3.6929-1.0256 5.71.0114.4253.0227.8467.0227 1.2588 0 3.2133-2.6049 5.8182-5.8182 5.8182s-5.8182-2.6049-5.8182-5.8182c0-3.2132 2.6049-5.8181 5.8182-5.8181 1.2338 0 2.5468-.328 3.264-1.3321l4.4602-6.2442c1.1361-1.5906 1.0798-3.693 1.0257-5.7102-.0114-.4253-.0227-.8469-.0227-1.259 0-3.2133 2.6049-5.8182 5.8182-5.8182 3.2132 0 5.8181 2.6049 5.8181 5.8182s-2.6049 5.8181-5.8181 5.8181z" fill="#fff" fill-rule="evenodd"/></svg>